Coordinates
version=1
nRows=24
nColumns=24
inDegrees=yes

Units are S.I. units (second, meters, Newtons, ...)
Angles are in degrees.

endheader
time	pelvis_tilt	pelvis_list	pelvis_rotation	pelvis_tx	pelvis_ty	pelvis_tz	hip_flexion_r	hip_adduction_r	hip_rotation_r	knee_angle_r	ankle_angle_r	subtalar_angle_r	mtp_angle_r	hip_flexion_l	hip_adduction_l	hip_rotation_l	knee_angle_l	ankle_angle_l	subtalar_angle_l	mtp_angle_l	lumbar_extension	lumbar_bending	lumbar_rotation
      1.95000000	     62.60480065	    -17.19263800	      5.86288227	      0.53353823	      0.95425936	     -0.23858021	      1.10332969	     -9.77987609	    -20.98347300	    -60.99439406	    -17.45555594	      0.00000000	      0.00000000	     24.46000939	    -12.91538620	     14.53845721	    -15.42050971	    -35.42047073	      0.00000000	      0.00000000	      0.00000000	      0.00000000	      0.00000000
      1.96000000	     62.60022593	    -17.19266235	      5.85871776	      0.53352295	      0.95424656	     -0.23855756	      1.10616060	     -9.78357903	    -20.97657546	    -61.00419975	    -17.45378450	      0.00000000	      0.00000000	     24.46346655	    -12.91959279	     14.52426375	    -15.41360580	    -35.42190342	      0.00000000	      0.00000000	      0.00000000	      0.00000000	      0.00000000
      1.97000000	     62.59142030	    -17.19358425	      5.85046026	      0.53350486	      0.95423173	     -0.23853663	      1.11672361	     -9.78721178	    -20.96348542	    -61.01757274	    -17.45091599	      0.00000000	      0.00000000	     24.46957172	    -12.92466924	     14.50671259	    -15.40699277	    -35.42342032	      0.00000000	      0.00000000	      0.00000000	      0.00000000	      0.00000000
      1.98000000	     62.57664379	    -17.19596748	      5.83620057	      0.53350040	      0.95421743	     -0.23852722	      1.13624694	     -9.79188434	    -20.94328139	    -61.03507587	    -17.44812751	      0.00000000	      0.00000000	     24.47894229	    -12.93024285	     14.48681454	    -15.40160165	    -35.42441973	      0.00000000	      0.00000000	      0.00000000	      0.00000000	      0.00000000
      1.99000000	     62.55639221	    -17.19905472	      5.81537723	      0.53351514	      0.95421939	     -0.23854082	      1.16464493	     -9.79805897	    -20.91631813	    -61.05756937	    -17.44620840	      0.00000000	      0.00000000	     24.49154660	    -12.93549876	     14.46569275	    -15.39846635	    -35.42492844	      0.00000000	      0.00000000	      0.00000000	      0.00000000	      0.00000000
      2.00000000	     62.53309820	    -17.20137233	      5.78915569	      0.53353882	      0.95423606	     -0.23857085	      1.19998275	     -9.80614946	    -20.88375334	    -61.08591149	    -17.44539828	      0.00000000	      0.00000000	     24.50696760	    -12.93955662	     14.44428149	    -15.39848082	    -35.42549205	      0.00000000	      0.00000000	      0.00000000	      0.00000000	      0.00000000
      2.01000000	     62.51022292	    -17.20146745	      5.76028885	      0.53355459	      0.95424168	     -0.23859039	      1.23883839	     -9.81676993	    -20.84696291	    -61.12031110	    -17.44555257	      0.00000000	      0.00000000	     24.52451248	    -12.94177261	     14.42313737	    -15.40219017	    -35.42676539	      0.00000000	      0.00000000	      0.00000000	      0.00000000	      0.00000000
      2.02000000	     62.49122055	    -17.19844758	      5.73226701	      0.53355333	      0.95421822	     -0.23858239	      1.27749880	     -9.83011704	    -20.80739463	    -61.16001838	    -17.44642166	      0.00000000	      0.00000000	     24.54304359	    -12.94160674	     14.40236689	    -15.40968305	    -35.42908465	      0.00000000	      0.00000000	      0.00000000	      0.00000000	      0.00000000
      2.03000000	     62.47851032	    -17.19232158	      5.70822608	      0.53353704	      0.95417120	     -0.23855668	      1.31293491	     -9.84538868	    -20.76660045	    -61.20342742	    -17.44783912	      0.00000000	      0.00000000	     24.56099596	    -12.93845481	     14.38169038	    -15.42052955	    -35.43225802	      0.00000000	      0.00000000	      0.00000000	      0.00000000	      0.00000000
      2.04000000	     62.47279520	    -17.18385978	      5.69019243	      0.53351210	      0.95411904	     -0.23853698	      1.34308414	     -9.86092978	    -20.72609244	    -61.24835855	    -17.44972752	      0.00000000	      0.00000000	     24.57692614	    -12.93197098	     14.36070013	    -15.43376415	    -35.43565334	      0.00000000	      0.00000000	      0.00000000	      0.00000000	      0.00000000
      2.05000000	     62.47298335	    -17.17400393	      5.67879166	      0.53348434	      0.95407553	     -0.23853436	      1.36677923	     -9.87494343	    -20.68714885	    -61.29241597	    -17.45194554	      0.00000000	      0.00000000	     24.59023197	    -12.92268406	     14.33931132	    -15.44798861	    -35.43851507	      0.00000000	      0.00000000	      0.00000000	      0.00000000	      0.00000000
      2.06000000	     62.47683680	    -17.16331377	      5.67332644	      0.53345418	      0.95404295	     -0.23853552	      1.38405013	     -9.88603603	    -20.65084702	    -61.33336841	    -17.45409504	      0.00000000	      0.00000000	     24.60139233	    -12.91212249	     14.31822408	    -15.46160076	    -35.44033823	      0.00000000	      0.00000000	      0.00000000	      0.00000000	      0.00000000
      2.07000000	     62.48177695	    -17.15216625	      5.67200904	      0.53341563	      0.95401732	     -0.23851852	      1.39646361	     -9.89342429	    -20.61812846	    -61.36946161	    -17.45544180	      0.00000000	      0.00000000	     24.61162960	    -12.90207758	     14.29912540	    -15.47303106	    -35.44112057	      0.00000000	      0.00000000	      0.00000000	      0.00000000	      0.00000000
      2.08000000	     62.48517026	    -17.14142217	      5.67226058	      0.53336917	      0.95399585	     -0.23847612	      1.40658266	     -9.89717548	    -20.58955545	    -61.39959818	    -17.45503083	      0.00000000	      0.00000000	     24.62248131	    -12.89378953	     14.28446047	    -15.48090649	    -35.44142147	      0.00000000	      0.00000000	      0.00000000	      0.00000000	      0.00000000
      2.09000000	     62.48448602	    -17.13232739	      5.67131491	      0.53332695	      0.95397949	     -0.23842098	      1.41684795	     -9.89842656	    -20.56491099	    -61.42339707	    -17.45196086	      0.00000000	      0.00000000	     24.63566715	    -12.88799254	     14.27673251	    -15.48417340	    -35.44225537	      0.00000000	      0.00000000	      0.00000000	      0.00000000	      0.00000000
      2.10000000	     62.47799142	    -17.12550599	      5.66710758	      0.53330295	      0.95396900	     -0.23837144	      1.42887913	     -9.89921825	    -20.54312552	    -61.44117846	    -17.44573626	      0.00000000	      0.00000000	     24.65310709	    -12.88556324	     14.27744225	    -15.48225343	    -35.44485819	      0.00000000	      0.00000000	      0.00000000	      0.00000000	      0.00000000
      2.11000000	     62.46560105	    -17.12028745	      5.65892637	      0.53330469	      0.95396278	     -0.23833778	      1.44358902	     -9.90168160	    -20.52283538	    -61.45395497	    -17.43659483	      0.00000000	      0.00000000	     24.67650550	    -12.88761964	     14.28601685	    -15.47532079	    -35.45037450	      0.00000000	      0.00000000	      0.00000000	      0.00000000	      0.00000000
      2.12000000	     62.44881007	    -17.11539574	      5.64741266	      0.53332409	      0.95395869	     -0.23831173	      1.46163865	     -9.90675016	    -20.50334188	    -61.46345783	    -17.42565383	      0.00000000	      0.00000000	     24.70616952	    -12.89440728	     14.29928845	    -15.46464176	    -35.45954151	      0.00000000	      0.00000000	      0.00000000	      0.00000000	      0.00000000
      2.13000000	     62.42957408	    -17.11025720	      5.63392095	      0.53333906	      0.95395024	     -0.23826642	      1.48340560	     -9.91317241	    -20.48529361	    -61.47202306	    -17.41471566	      0.00000000	      0.00000000	     24.73992810	    -12.90404105	     14.31209389	    -15.45256461	    -35.47247202	      0.00000000	      0.00000000	      0.00000000	      0.00000000	      0.00000000
      2.14000000	     62.40951771	    -17.10512487	      5.61973374	      0.53333287	      0.95392425	     -0.23818851	      1.50825671	     -9.91798202	    -20.47040439	    -61.48200339	    -17.40567912	      0.00000000	      0.00000000	     24.77382941	    -12.91320112	     14.31913949	    -15.44166463	    -35.48862041	      0.00000000	      0.00000000	      0.00000000	      0.00000000	      0.00000000
      2.15000000	     62.39018121	    -17.10040862	      5.60603187	      0.53330732	      0.95388019	     -0.23810392	      1.53394333	     -9.91879762	    -20.46014648	    -61.49466423	    -17.39972638	      0.00000000	      0.00000000	     24.80434171	    -12.91958940	     14.31727407	    -15.43345466	    -35.50692671	      0.00000000	      0.00000000	      0.00000000	      0.00000000	      0.00000000
      2.16000000	     62.37322644	    -17.09661410	      5.59443675	      0.53328113	      0.95384599	     -0.23805011	      1.55681858	     -9.91589488	    -20.45463392	    -61.50937512	    -17.39676618	      0.00000000	      0.00000000	     24.82968120	    -12.92333893	     14.30676350	    -15.42782777	    -35.52607551	      0.00000000	      0.00000000	      0.00000000	      0.00000000	      0.00000000
      2.17000000	     62.36025121	    -17.09439470	      5.58714525	      0.53327734	      0.95384795	     -0.23803152	      1.57289599	     -9.91194383	    -20.45287976	    -61.52390559	    -17.39553238	      0.00000000	      0.00000000	     24.84947626	    -12.92616706	     14.29097822	    -15.42355204	    -35.54479542	      0.00000000	      0.00000000	      0.00000000	      0.00000000	      0.00000000
      2.18000000	     62.35278993	    -17.09415671	      5.58636112	      0.53329849	      0.95387096	     -0.23801748	      1.57938962	     -9.90982371	    -20.45414670	    -61.53575932	    -17.39425034	      0.00000000	      0.00000000	     24.86387575	    -12.92954578	     14.27497903	    -15.41915107	    -35.56210583	      0.00000000	      0.00000000	      0.00000000	      0.00000000	      0.00000000
